<?xml version="1.0" encoding="UTF-8" standalone="no"?>
<!DOCTYPE svg PUBLIC "-//W3C//DTD SVG 1.1//EN" "http://www.w3.org/Graphics/SVG/1.1/DTD/svg11.dtd">
<svg width="100%" height="100%" viewBox="0 0 100 74" version="1.1" xmlns="http://www.w3.org/2000/svg" xmlns:xlink="http://www.w3.org/1999/xlink" xml:space="preserve" xmlns:serif="http://www.serif.com/" style="fill-rule:evenodd;clip-rule:evenodd;stroke-linejoin:round;stroke-miterlimit:1.41421;">
    <g id="Layer-1" serif:id="Layer 1" transform="matrix(0.0778677,0,0,0.0784987,-1.67418,-1.14679)">
        <g transform="matrix(1,0,0,1,550.379,436.36)">
            <path d="M0,-156.824C-5.736,-156.824 -10.903,-154.826 -15.502,-150.795C-20.102,-146.781 -24.115,-141.475 -27.561,-134.861C-31.006,-128.264 -33.883,-120.649 -36.173,-112.037C-38.464,-103.424 -40.188,-94.381 -41.341,-84.907C-32.16,-80.893 -24.253,-79.962 -17.655,-82.116C-11.058,-84.268 -5.598,-88.007 -1.292,-93.312C3.015,-98.618 6.168,-104.94 8.184,-112.261C10.199,-119.582 11.197,-126.541 11.197,-133.138C11.197,-139.753 10.268,-145.352 8.39,-149.934C6.529,-154.533 3.739,-156.824 0,-156.824M80.962,-80.6C81.823,-82.616 82.823,-83.975 83.977,-84.7C85.131,-85.423 86.268,-85.561 87.422,-85.13C88.576,-84.7 89.438,-83.769 90.006,-82.322C90.573,-80.893 90.436,-79.032 89.575,-76.723C89.006,-75.294 87.853,-71.487 86.13,-65.32C84.407,-59.154 81.893,-51.833 78.585,-43.358C75.295,-34.883 71.126,-25.908 66.097,-16.434C61.083,-6.96 55.123,1.791 48.232,9.835C41.343,17.863 33.367,24.478 24.323,29.646C15.28,34.814 5.168,37.397 -6.028,37.397C-20.963,37.397 -34.382,34.382 -46.303,28.353C-58.205,22.324 -68.266,14.573 -76.447,5.099C-84.629,-4.376 -90.865,-14.798 -95.172,-26.132C-99.478,-37.467 -101.631,-48.595 -101.631,-59.499C-101.631,-73.571 -100.047,-87.145 -96.895,-100.203C-93.741,-113.261 -89.866,-125.249 -85.268,-136.153C-80.668,-147.074 -75.724,-156.549 -70.419,-164.576C-65.096,-172.62 -60.29,-178.649 -55.983,-182.662C-51.677,-186.401 -46.078,-189.208 -39.188,-191.069C-32.298,-192.929 -25.339,-193.946 -18.311,-194.083C-11.265,-194.221 -4.599,-193.859 1.724,-192.998C8.046,-192.137 12.92,-190.845 16.365,-189.122C22.963,-185.97 28.354,-179.872 32.506,-170.829C36.675,-161.785 38.759,-151.225 38.759,-139.168C38.759,-116.499 34.022,-99.342 24.547,-87.714C15.073,-76.087 3.308,-70.264 -10.766,-70.264C-15.934,-70.264 -21.324,-70.85 -26.923,-71.987C-32.521,-73.141 -37.604,-74.432 -42.203,-75.862C-43.064,-65.251 -42.203,-54.761 -39.618,-44.426C-37.034,-34.091 -33.521,-24.909 -29.076,-16.864C-24.614,-8.837 -19.447,-2.308 -13.573,2.722C-7.682,7.751 -1.722,10.267 4.307,10.267C13.488,10.267 21.671,8.183 28.854,4.013C36.037,-0.155 42.411,-5.392 48.009,-11.697C53.607,-18.018 58.345,-24.909 62.22,-32.368C66.097,-39.845 69.403,-46.94 72.125,-53.693C74.864,-60.446 76.862,-66.319 78.153,-71.349C79.445,-76.38 80.394,-79.464 80.962,-80.6" style="fill:white;fill-rule:nonzero;"/>
        </g>
        <g transform="matrix(1,0,0,1,1093.83,429.4)">
            <path d="M0,-99.048C0.568,-101.356 1.584,-103.01 3.014,-104.01C4.444,-105.008 5.805,-105.439 7.097,-105.301C8.389,-105.163 9.405,-104.371 10.111,-102.924C10.835,-101.494 10.903,-99.479 10.335,-96.895C10.043,-95.172 8.682,-90.091 6.235,-81.615C3.807,-73.141 0.568,-62.961 -3.445,-51.04C-7.459,-39.119 -12.059,-26.27 -17.226,-12.488C-22.394,1.292 -27.923,14.211 -33.814,26.269C-39.688,38.328 -45.787,48.801 -52.108,57.707C-58.43,66.596 -64.597,72.056 -70.626,74.071C-72.056,74.931 -74.364,75.363 -77.517,75.363C-84.407,75.363 -90.366,73.279 -95.397,69.11C-100.409,64.941 -104.871,59.773 -108.746,53.607C-112.623,47.44 -115.843,40.687 -118.428,33.367C-121.012,26.046 -123.165,19.293 -124.887,13.127C-126.609,6.959 -127.901,1.791 -128.763,-2.377C-129.625,-6.545 -130.348,-8.612 -130.916,-8.612C-131.484,-8.612 -132.432,-6.977 -133.724,-3.669C-135.017,-0.361 -136.738,3.652 -138.892,8.389C-141.045,13.127 -143.543,18.363 -146.419,24.116C-149.296,29.851 -152.586,35.09 -156.324,39.826C-160.063,44.562 -164.3,48.576 -169.037,51.885C-173.774,55.191 -179.01,56.846 -184.746,56.846C-193.359,56.846 -201.404,55.329 -208.863,52.314C-216.321,49.301 -222.867,44.494 -228.466,37.896C-234.064,31.282 -238.439,22.738 -241.593,12.265C-244.744,1.791 -246.329,-10.921 -246.329,-25.838C-246.329,-39.912 -244.399,-55.553 -240.524,-72.779C-236.647,-90.004 -230.757,-106.162 -222.867,-121.235C-214.961,-136.308 -205.125,-148.934 -193.359,-159.131C-181.595,-169.33 -167.658,-174.411 -151.587,-174.411C-140.391,-174.411 -130.192,-174.067 -121.012,-173.343C-111.83,-172.619 -103.854,-170.328 -97.119,-166.453C-90.366,-162.576 -85.13,-156.41 -81.392,-147.936C-77.654,-139.459 -75.794,-127.333 -75.794,-111.537C-75.794,-110.108 -76.586,-108.746 -78.171,-107.454C-79.738,-106.162 -81.529,-105.301 -83.545,-104.871C-85.561,-104.44 -87.352,-104.578 -88.938,-105.301C-90.504,-106.026 -91.297,-107.524 -91.297,-109.815C-91.297,-112.399 -91.521,-116.136 -91.952,-121.012C-92.382,-125.903 -93.313,-130.847 -94.742,-135.877C-96.172,-140.906 -98.118,-145.282 -100.564,-149.003C-102.993,-152.74 -106.231,-154.602 -110.246,-154.602C-120.873,-154.602 -130.985,-150.226 -140.615,-141.475C-150.227,-132.725 -158.701,-121.012 -166.022,-106.369C-173.343,-91.727 -179.148,-75.087 -183.455,-56.414C-187.762,-37.759 -189.915,-18.518 -189.915,1.292C-189.915,5.306 -189.776,9.75 -189.484,14.642C-189.19,19.517 -188.554,24.03 -187.555,28.199C-186.538,32.367 -185.04,35.881 -183.024,38.758C-181.009,41.617 -178.425,43.064 -175.272,43.064C-173.257,43.064 -170.828,40.826 -167.952,36.381C-165.075,31.936 -162.147,26.115 -159.132,18.948C-156.117,11.765 -153.171,3.876 -150.295,-4.737C-147.418,-13.35 -144.921,-21.825 -142.768,-30.145C-140.615,-38.483 -138.806,-46.165 -137.375,-53.194C-135.945,-60.221 -135.223,-65.613 -135.223,-69.334C-135.223,-71.35 -135.085,-73.795 -134.792,-76.654C-134.499,-79.531 -133.568,-82.184 -132.002,-84.631C-130.416,-87.076 -127.901,-89.144 -124.456,-90.866C-121.012,-92.588 -115.981,-93.449 -109.384,-93.449C-96.172,-93.449 -86.698,-91.09 -80.962,-86.353C-75.226,-81.615 -72.349,-76.947 -72.349,-72.348L-72.349,-65.458C-72.056,-57.999 -71.918,-48.026 -71.918,-35.537C-71.918,-23.048 -71.556,-10.697 -70.85,1.498C-70.126,13.695 -68.903,24.254 -67.182,33.16C-65.458,42.049 -62.875,46.51 -59.43,46.51C-58,46.51 -55.553,43.134 -52.108,36.381C-48.663,29.629 -44.856,21.17 -40.704,10.973C-36.535,0.775 -32.161,-10.422 -27.562,-22.617C-22.962,-34.814 -18.742,-46.303 -14.865,-57.069C-10.99,-67.835 -7.683,-77.085 -4.962,-84.837C-2.222,-92.588 -0.569,-97.326 0,-99.048" style="fill:white;fill-rule:nonzero;"/>
        </g>
        <g transform="matrix(1,0,0,1,48.4834,739.983)">
            <path d="M0,-455.412C-0.354,-465.81 2.766,-472.486 9.357,-475.438C15.951,-478.391 23.395,-478.641 31.715,-476.208C40.031,-473.796 47.748,-469.283 54.84,-462.691C61.951,-456.119 65.674,-448.841 66.027,-440.854C66.381,-435.323 65.859,-424.926 64.469,-409.661C63.074,-394.418 61.266,-376.305 58.998,-355.342C56.752,-334.38 54.422,-311.754 51.99,-287.484C49.557,-263.236 47.227,-239.404 44.961,-216.009C42.715,-192.613 40.988,-170.861 39.762,-150.751C38.555,-130.662 38.307,-114.358 38.992,-101.88C40.031,-82.831 41.842,-66.443 44.441,-52.76C47.041,-39.076 49.91,-27.639 53.029,-18.447C56.148,-9.255 59.104,-1.976 61.869,3.39C64.635,8.755 66.547,12.83 67.586,15.617C68.627,18.383 68.543,20.296 67.316,21.336C66.111,22.376 63.074,22.896 58.229,22.896C50.949,23.229 42.631,20.463 33.273,14.577C23.916,8.672 14.994,-0.25 6.488,-12.208C-1.996,-24.166 -9.359,-39.076 -15.598,-56.92C-21.836,-74.763 -25.475,-95.475 -26.514,-119.037C-27.201,-134.987 -27.035,-153.704 -25.996,-175.186C-24.955,-196.689 -23.396,-219.211 -21.316,-242.773C-19.236,-266.355 -16.908,-289.918 -14.309,-313.479C-11.709,-337.062 -9.275,-358.628 -7.029,-378.218C-4.764,-397.808 -2.953,-414.527 -1.561,-428.378C-0.166,-442.249 0.354,-451.253 0,-455.412" style="fill:white;fill-rule:nonzero;"/>
        </g>
        <g transform="matrix(1,0,0,1,256.949,547.996)">
            <path d="M0,53.83C0.861,51.246 1.861,49.437 3.015,48.439C4.169,47.439 5.306,47.146 6.46,47.577C7.614,48.008 8.476,48.869 9.044,50.162C9.611,51.453 9.768,52.969 9.474,54.691C8.613,58.137 6.959,63.512 4.514,70.832C2.085,78.153 -0.931,86.336 -4.53,95.379C-8.113,104.423 -12.127,113.759 -16.589,123.371C-21.033,132.982 -25.701,141.751 -30.576,149.641C-35.45,157.529 -40.48,163.989 -45.648,169.019C-50.816,174.049 -55.846,176.564 -60.722,176.564L-61.582,176.564C-75.655,176.564 -86.853,172.172 -95.173,163.421C-103.492,154.67 -109.814,143.973 -114.121,131.347C-118.427,118.703 -121.235,105.576 -122.526,91.934C-123.818,78.291 -124.456,66.457 -124.456,56.414C-124.456,44.063 -124.25,33.435 -123.818,24.547C-123.389,15.641 -122.802,8.182 -122.097,2.152C-121.373,-3.876 -120.805,-8.837 -120.373,-12.713C-119.943,-16.588 -119.72,-19.81 -119.72,-22.394C-119.72,-26.992 -116.929,-29.647 -111.33,-30.369C-105.731,-31.093 -99.479,-30.301 -92.589,-27.992C-85.698,-25.701 -79.462,-22.324 -73.864,-17.881C-68.266,-13.437 -65.458,-8.476 -65.458,-3.015C-65.458,0.999 -65.596,5.443 -65.889,10.336C-66.181,15.21 -66.456,20.378 -66.75,25.838C-67.042,31.282 -67.318,36.674 -67.611,41.979C-67.904,47.285 -68.042,52.246 -68.042,56.846C-68.042,80.1 -66.25,99.048 -62.667,113.689C-59.067,128.332 -55.415,139.805 -51.678,148.142C-48.801,146.694 -45.579,143.543 -41.996,138.668C-38.396,133.775 -34.744,128.178 -31.006,121.873C-27.269,115.551 -23.686,108.798 -20.24,101.632C-16.795,94.449 -13.643,87.627 -10.766,81.168C-7.89,74.708 -5.529,69.041 -3.669,64.166C-1.791,59.273 -0.568,55.828 0,53.83M-48.663,-80.531C-48.663,-73.934 -50.747,-69.42 -54.916,-66.975C-59.067,-64.527 -64.235,-63.529 -70.419,-63.959C-76.586,-64.391 -83.339,-65.889 -90.659,-68.473C-97.98,-71.057 -104.715,-74.227 -110.899,-77.947C-117.066,-81.686 -122.234,-85.63 -126.403,-89.798C-130.554,-93.967 -132.639,-97.912 -132.639,-101.633C-132.639,-107.094 -131.57,-111.262 -129.417,-114.121C-127.264,-116.998 -124.388,-119.082 -120.805,-120.374C-117.204,-121.666 -112.967,-122.39 -108.092,-122.527C-103.217,-122.665 -98.05,-122.734 -92.589,-122.734C-87.421,-122.734 -82.185,-121.305 -76.879,-118.428C-71.556,-115.568 -66.818,-111.968 -62.667,-107.662C-58.499,-103.356 -55.123,-98.774 -52.538,-93.881C-49.955,-89.006 -48.663,-84.562 -48.663,-80.531" style="fill:white;fill-rule:nonzero;"/>
        </g>
        <g transform="matrix(1,0,0,1,545.46,699.551)">
            <path d="M0,-156.825C-5.735,-156.825 -10.904,-154.827 -15.503,-150.796C-20.103,-146.782 -24.115,-141.477 -27.561,-134.862C-31.007,-128.264 -33.883,-120.651 -36.174,-112.038C-38.465,-103.425 -40.188,-94.382 -41.342,-84.907C-32.16,-80.893 -24.253,-79.964 -17.656,-82.116C-11.059,-84.27 -5.598,-88.009 -1.291,-93.313C3.016,-98.619 6.167,-104.94 8.183,-112.262C10.198,-119.583 11.197,-126.542 11.197,-133.139C11.197,-139.755 10.267,-145.352 8.389,-149.934C6.529,-154.534 3.738,-156.825 0,-156.825M80.961,-80.6C81.822,-82.616 82.822,-83.977 83.976,-84.7C85.13,-85.425 86.268,-85.561 87.421,-85.132C88.575,-84.7 89.437,-83.77 90.005,-82.323C90.574,-80.893 90.436,-79.034 89.574,-76.725C89.007,-75.296 87.852,-71.488 86.129,-65.321C84.406,-59.155 81.892,-51.834 78.584,-43.358C75.294,-34.884 71.126,-25.909 66.096,-16.434C61.083,-6.96 55.123,1.79 48.232,9.834C41.342,17.862 33.366,24.476 24.323,29.645C15.279,34.812 5.168,37.396 -6.028,37.396C-20.964,37.396 -34.383,34.382 -46.303,28.353C-58.205,22.323 -68.266,14.571 -76.448,5.097C-84.63,-4.377 -90.865,-14.798 -95.172,-26.133C-99.479,-37.468 -101.632,-48.596 -101.632,-59.499C-101.632,-73.573 -100.047,-87.147 -96.896,-100.204C-93.742,-113.261 -89.867,-125.25 -85.267,-136.153C-80.668,-147.075 -75.725,-156.55 -70.418,-164.577C-65.097,-172.621 -60.29,-178.649 -55.984,-182.663C-51.678,-186.401 -46.079,-189.21 -39.188,-191.07C-32.299,-192.93 -25.339,-193.946 -18.311,-194.085C-11.266,-194.221 -4.599,-193.86 1.723,-192.999C8.045,-192.138 12.919,-190.846 16.364,-189.124C22.962,-185.971 28.354,-179.874 32.505,-170.829C36.674,-161.786 38.758,-151.226 38.758,-139.169C38.758,-116.499 34.021,-99.343 24.548,-87.716C15.072,-76.087 3.308,-70.265 -10.767,-70.265C-15.934,-70.265 -21.325,-70.85 -26.924,-71.988C-32.522,-73.141 -37.604,-74.434 -42.202,-75.864C-43.064,-65.253 -42.202,-54.762 -39.619,-44.427C-37.035,-34.091 -33.521,-24.91 -29.077,-16.866C-24.615,-8.839 -19.447,-2.309 -13.573,2.72C-7.683,7.75 -1.723,10.265 4.307,10.265C13.488,10.265 21.671,8.181 28.854,4.013C36.037,-0.157 42.41,-5.393 48.009,-11.698C53.606,-18.02 58.344,-24.91 62.22,-32.368C66.096,-39.845 69.403,-46.942 72.124,-53.694C74.863,-60.446 76.862,-66.321 78.154,-71.35C79.445,-76.381 80.394,-79.464 80.961,-80.6" style="fill:white;fill-rule:nonzero;"/>
        </g>
        <g transform="matrix(1,0,0,1,1019.24,682.544)">
            <path d="M0,53.832C0.861,51.248 1.86,49.438 3.015,48.439C4.169,47.44 5.306,47.148 6.46,47.578C7.614,48.01 8.476,48.871 9.043,50.162C9.611,51.454 9.768,52.971 9.474,54.693C8.613,58.138 6.959,63.513 4.513,70.833C2.084,78.154 -0.931,86.336 -4.53,95.381C-8.113,104.424 -12.127,113.76 -16.589,123.372C-21.033,132.984 -25.701,141.752 -30.576,149.642C-35.45,157.53 -40.481,163.99 -45.648,169.02C-50.816,174.051 -55.846,176.564 -60.722,176.564L-61.582,176.564C-75.656,176.564 -86.853,172.172 -95.173,163.422C-103.492,154.672 -109.814,143.975 -114.121,131.348C-118.428,118.703 -121.235,105.578 -122.527,91.936C-123.818,78.292 -124.457,66.458 -124.457,56.415C-124.457,44.064 -124.25,33.436 -123.818,24.548C-123.389,15.642 -122.803,8.184 -122.097,2.154C-121.373,-3.875 -120.805,-8.836 -120.374,-12.712C-119.943,-16.588 -119.72,-19.809 -119.72,-22.393C-119.72,-26.992 -116.929,-29.645 -111.33,-30.368C-105.731,-31.092 -99.479,-30.299 -92.589,-27.991C-85.699,-25.7 -79.463,-22.324 -73.864,-17.879C-68.266,-13.436 -65.458,-8.475 -65.458,-3.014C-65.458,1 -65.596,5.444 -65.889,10.336C-66.181,15.211 -66.458,20.379 -66.75,25.84C-67.043,31.283 -67.318,36.674 -67.611,41.98C-67.904,47.285 -68.042,52.246 -68.042,56.846C-68.042,80.101 -66.25,99.049 -62.667,113.691C-59.067,128.333 -55.415,139.805 -51.678,148.143C-48.801,146.695 -45.579,143.543 -41.996,138.669C-38.396,133.775 -34.745,128.178 -31.006,121.873C-27.269,115.551 -23.686,108.799 -20.24,101.633C-16.796,94.449 -13.643,87.629 -10.766,81.169C-7.89,74.709 -5.529,69.041 -3.669,64.167C-1.791,59.275 -0.568,55.83 0,53.832M-48.663,-80.529C-48.663,-73.932 -50.747,-69.419 -54.916,-66.973C-59.067,-64.527 -64.235,-63.527 -70.419,-63.959C-76.586,-64.389 -83.339,-65.888 -90.659,-68.472C-97.98,-71.056 -104.715,-74.225 -110.899,-77.945C-117.066,-81.684 -122.234,-85.629 -126.403,-89.797C-130.554,-93.966 -132.639,-97.91 -132.639,-101.631C-132.639,-107.092 -131.57,-111.26 -129.417,-114.12C-127.264,-116.996 -124.388,-119.081 -120.805,-120.373C-117.204,-121.664 -112.967,-122.389 -108.092,-122.526C-103.217,-122.664 -98.05,-122.732 -92.589,-122.732C-87.421,-122.732 -82.185,-121.303 -76.879,-118.427C-71.556,-115.566 -66.819,-111.967 -62.667,-107.66C-58.499,-103.354 -55.123,-98.772 -52.538,-93.879C-49.955,-89.005 -48.663,-84.561 -48.663,-80.529" style="fill:white;fill-rule:nonzero;"/>
        </g>
        <g transform="matrix(1,0,0,1,1297.93,734.952)">
            <path d="M0,-189.989C5.939,-189.203 8.459,-187.686 7.572,-185.439C6.703,-183.191 3.62,-181.482 -1.674,-180.311C-10.013,-178.592 -20.671,-176.945 -33.634,-175.355C-46.594,-173.782 -60.772,-172.511 -76.136,-171.543C-91.5,-170.574 -107.679,-169.825 -124.644,-169.276C-141.607,-168.727 -158.412,-168.508 -175.057,-168.602C-178.761,-154.47 -182.565,-139.937 -186.488,-124.99C-190.396,-110.056 -194.011,-95.441 -197.321,-81.127C-200.632,-66.812 -203.536,-53.216 -206.033,-40.337C-208.529,-27.456 -210.228,-16.013 -211.113,-5.988C-212.691,11.886 -213.234,27.313 -212.747,40.324C-212.257,53.337 -211.306,64.262 -209.911,73.129C-208.516,81.981 -206.948,89.078 -205.242,94.42C-203.533,99.745 -202.38,103.744 -201.795,106.383C-201.209,109.022 -201.489,110.717 -202.65,111.433C-203.81,112.151 -206.413,112.328 -210.476,111.971C-216.698,111.42 -223.085,107.909 -229.607,101.471C-236.131,95.033 -241.944,85.776 -247.021,73.733C-252.1,61.692 -255.913,47.026 -258.48,29.737C-261.047,12.447 -261.351,-7.296 -259.391,-29.491C-257.549,-50.354 -253.898,-73.154 -248.437,-97.922C-242.974,-122.69 -237.149,-146.935 -230.959,-170.673C-240.454,-171.25 -340.963,-185.381 -349.181,-186.516C-357.415,-187.652 -364.999,-188.928 -371.979,-190.363C-381.892,-192.336 -391.062,-195.127 -399.487,-198.736C-407.896,-202.344 -415.668,-206.306 -422.788,-210.619C-429.923,-214.933 -436.349,-219.316 -442.094,-223.787C-447.842,-228.24 -453.136,-232.458 -457.974,-236.439C-462.033,-239.793 -463.37,-242.45 -461.973,-244.373C-460.575,-246.297 -458.414,-246.843 -455.488,-246.045C-435.537,-240.189 -413.316,-235.164 -388.863,-230.958C-364.395,-226.751 -247.434,-209.791 -221.23,-206.658L-217.717,-218.629C-213.31,-234.615 -209.506,-248.198 -206.341,-259.382C-203.176,-270.564 -201.381,-278.463 -200.975,-283.061C-200.113,-292.81 -197.014,-298.612 -191.66,-300.465C-186.306,-302.317 -180.632,-301.669 -174.635,-298.552C-168.638,-295.435 -163.346,-290.465 -158.757,-283.64C-154.169,-276.816 -152.218,-269.619 -152.888,-262.031C-153.246,-257.968 -154.321,-251.923 -156.127,-243.894C-157.933,-235.866 -160.143,-226.236 -162.771,-215.006L-166.428,-201.41C-149.091,-199.879 -132.157,-198.596 -115.597,-197.543C-99.035,-196.491 -83.5,-195.528 -68.986,-194.656C-54.456,-193.782 -41.297,-192.964 -29.495,-192.184C-17.689,-191.42 -7.848,-190.681 0,-189.989" style="fill:white;fill-rule:nonzero;"/>
        </g>
        <g transform="matrix(1,0,0,1,308.628,141.836)">
            <path d="M0,213.68C0.557,212.245 1.115,211.529 2.232,210.812C2.232,211.529 2.791,212.245 2.791,212.245C2.232,213.68 1.674,214.397 0.557,215.114C0,215.114 -0.559,215.114 -1.117,215.831L0,213.68ZM-1.117,215.831C-1.117,220.133 -1.676,224.436 -1.676,228.739C-5.025,226.586 -3.91,222.284 -3.91,217.983C-3.91,217.266 -2.234,216.548 -1.117,215.831M-55.828,277.496C-55.271,275.346 -55.271,273.911 -55.271,271.761C-52.48,281.082 -50.246,290.404 -53.037,302.593C-58.063,300.443 -54.713,295.423 -55.271,291.838C-59.18,291.12 -59.18,291.12 -60.295,279.649L-55.828,277.496ZM17.305,316.935C18.422,313.349 21.213,309.764 21.771,306.897C23.447,297.575 28.471,289.687 33.496,281.8C42.428,269.61 51.361,256.703 56.945,242.363L62.527,232.324C70.344,217.983 79.275,203.642 86.533,189.3C92.117,178.545 96.582,166.355 102.164,155.599C108.865,143.409 115.006,131.937 119.473,119.746C120.031,119.03 120.588,118.313 120.588,117.596C131.197,100.386 137.896,81.027 149.619,65.251L151.295,62.383C163.02,40.155 174.742,17.926 185.908,-4.302C189.258,-10.039 190.934,-16.493 193.725,-21.511C199.865,-33.701 207.123,-45.174 213.264,-57.364C214.939,-59.515 216.057,-62.383 217.172,-65.252C220.523,-71.705 223.314,-78.876 226.662,-86.046C228.338,-89.631 230.014,-93.216 231.129,-96.801C232.805,-101.82 233.361,-107.557 235.037,-113.294C237.271,-121.181 236.154,-124.049 230.014,-123.332C225.547,-123.332 220.523,-121.181 216.057,-119.747C213.264,-119.03 211.031,-116.88 209.357,-113.294C205.447,-106.124 201.539,-99.67 198.191,-92.5L164.693,-28.682L141.244,15.058C133.43,28.682 125.613,41.589 118.355,55.212C105.516,78.875 92.117,102.538 79.834,126.917C74.25,136.239 69.785,146.278 64.76,155.599C58.061,172.091 21.771,277.496 16.748,211.529C16.748,207.944 16.189,203.642 17.305,199.339C17.865,194.32 19.539,189.3 15.072,187.866C14.514,187.866 15.072,185.715 15.072,182.847C13.398,184.998 12.281,187.149 11.166,187.866C6.141,190.735 3.348,195.036 3.908,201.49C3.908,202.207 1.674,203.642 -0.559,206.51C1.115,191.451 -3.352,180.696 0.557,164.203C2.791,167.073 5.582,167.789 6.141,169.94C7.256,174.242 7.256,179.262 7.814,183.564C14.514,179.262 19.539,168.506 17.305,161.335C15.631,161.335 13.957,160.618 12.281,160.618C12.84,158.467 13.398,157.034 13.398,156.317C18.98,143.409 19.539,131.937 17.305,121.898C16.189,116.161 15.072,111.859 15.631,106.123C15.631,103.255 14.514,101.104 13.957,98.235L8.373,108.991C7.814,110.425 6.699,111.859 6.699,113.293C6.699,125.483 6.141,137.672 6.141,149.863C5.582,154.165 6.141,158.467 1.674,162.769C-1.676,155.599 -2.234,146.994 -1.676,139.107C-1.117,131.937 -2.234,124.766 1.115,116.879C3.908,110.425 5.023,103.255 6.141,96.801C7.256,89.631 7.256,82.46 7.256,76.007C7.256,70.271 8.373,64.534 11.723,58.797C13.957,54.495 15.631,48.759 16.189,44.456C16.189,32.267 16.189,19.36 14.514,7.887C13.957,0.717 11.166,-5.737 7.814,-10.039C1.674,-17.926 -6.143,-24.38 -15.633,-27.249C-25.682,-30.834 -35.732,-32.267 -44.664,-38.004C-45.223,-38.72 -46.338,-38.72 -46.896,-38.72L-79.836,-45.174C-81.51,-45.174 -83.744,-44.457 -87.094,-44.457C-85.418,-40.872 -85.418,-39.438 -84.303,-38.004L-78.719,-32.267C-77.045,-30.116 -75.928,-27.966 -77.045,-23.663C-77.604,-20.795 -76.486,-17.21 -75.369,-15.775C-73.695,-12.907 -71.461,-11.472 -68.67,-10.039C-65.879,-7.887 -64.203,-5.019 -64.203,-0.717C-63.646,21.511 -62.529,43.023 -62.529,65.251C-62.529,83.177 -64.203,101.104 -64.762,119.03L-64.762,131.22C-65.32,148.428 -65.32,165.638 -65.32,182.847C-65.32,199.339 -65.32,215.831 -64.762,232.324L-62.529,289.687C-61.971,301.876 -60.854,312.632 -54.154,320.52C-48.014,326.973 -41.314,331.993 -32.939,334.861C-27.357,337.729 -20.1,337.012 -12.283,330.559C-9.492,328.408 -5.584,326.973 -2.791,326.256C2.791,325.539 5.582,321.238 8.373,314.784L17.305,316.935Z" style="fill:white;fill-rule:nonzero;"/>
        </g>
        <g transform="matrix(1,0,0,1,240.563,569.303)">
            <path d="M0,322.333L0.551,322.333C0,322.333 0,322.333 0,323.04L0,322.333ZM66.045,232.56L68.246,230.439C68.246,229.733 70.998,229.025 70.447,227.612L66.045,232.56ZM11.559,298.3C11.559,301.834 9.908,306.075 6.605,309.609C7.156,306.781 7.156,306.781 11.559,298.3M11.559,298.3C15.963,288.403 22.016,278.507 28.619,270.024C31.371,264.369 34.674,262.249 37.977,258.008C39.627,260.128 36.875,260.835 36.326,262.249C31.371,269.318 26.969,275.68 22.566,283.455C19.264,286.283 17.611,290.524 15.963,294.765C14.859,296.886 13.211,297.593 11.559,298.3M-11.006,376.056C-13.758,376.762 -14.859,376.056 -15.41,373.228C-12.658,380.297 -9.355,385.245 -2.752,387.365C-1.1,388.072 0.551,388.779 3.303,388.779C4.955,388.779 6.605,390.899 9.357,390.899C9.908,391.606 10.459,391.606 12.66,391.606C18.162,392.313 24.768,390.899 30.822,388.072C34.123,386.658 36.875,385.245 40.178,384.537C45.682,382.417 52.285,379.59 57.24,374.642C58.34,371.814 59.99,370.4 61.092,369.693C64.393,367.573 66.596,366.159 68.246,364.039C72.648,360.505 75.4,357.677 79.254,356.263C85.857,350.608 90.811,344.953 96.314,337.178C97.965,336.471 97.965,336.471 97.965,335.764C99.617,332.229 102.369,330.815 102.918,329.402C106.221,324.453 108.973,319.506 111.174,316.678C111.725,309.609 116.129,307.489 119.98,303.247C120.531,301.834 122.182,301.127 122.732,300.421C122.732,297.593 122.182,296.179 122.182,294.059C122.732,289.817 126.035,288.403 127.135,284.162C128.236,283.455 129.887,281.334 130.438,279.921C130.988,274.266 134.291,270.024 136.49,264.369C139.793,262.249 145.297,247.405 144.746,243.871C143.646,238.215 147.498,233.268 149.15,228.319C150.801,224.784 152.451,223.371 153.002,219.13C155.754,215.596 157.955,211.354 157.404,204.993C157.404,203.578 159.057,200.044 159.605,197.924C162.908,186.613 164.01,176.718 164.561,166.114C165.66,154.804 164.01,159.753 163.459,148.443C162.357,143.494 161.258,137.132 159.605,131.478C158.506,125.116 155.203,120.168 151.902,113.806C150.801,111.686 141.994,104.616 138.691,103.203C138.143,101.082 138.143,97.548 140.344,96.841C141.994,94.014 143.646,91.894 144.746,89.065L167.861,62.911L177.768,47.36C183.271,34.636 187.676,21.913 192.078,9.188C197.031,-0.708 197.582,-12.018 195.379,-20.5C194.83,-28.982 194.279,-40.292 188.225,-47.361C183.271,-60.084 171.715,-63.619 161.809,-69.274C160.156,-69.98 159.057,-69.98 157.404,-69.98C153.002,-69.98 146.947,-69.98 142.545,-68.567C132.639,-65.739 123.832,-61.499 115.027,-58.671C104.02,-54.43 91.912,-47.361 82.006,-40.999C66.045,-31.103 50.084,-24.034 33.023,-16.965C28.619,-16.259 21.465,-14.138 15.412,-15.552L14.859,-14.138L14.859,-9.896C15.963,-5.655 18.162,2.12 20.363,7.068C24.768,20.498 41.277,21.206 52.836,18.378C77.051,-4.242 99.066,-31.103 129.336,-43.12C140.344,-51.603 153.553,-31.81 141.443,-8.483C117.779,26.153 86.408,56.55 62.742,91.894C62.742,92.6 61.641,94.014 61.092,95.428C52.836,108.857 52.836,108.857 40.178,112.392C37.977,115.926 36.326,115.926 33.574,118.047C31.371,122.288 33.574,123.702 36.326,124.409C37.426,126.529 40.178,130.063 40.178,132.892C44.58,139.253 52.285,140.667 59.99,140.667C66.045,140.667 70.998,145.615 77.604,140.667C82.555,141.374 86.408,140.667 91.361,139.253C96.865,137.84 100.166,139.253 105.121,139.253C111.174,140.667 125.484,142.081 126.035,147.028C126.584,151.27 126.584,155.512 125.484,160.459C125.484,172.476 124.934,170.355 122.732,184.493C118.328,197.924 115.027,212.062 110.625,226.199C110.625,226.199 110.625,227.612 110.074,229.025L104.02,241.75C102.369,247.405 99.617,253.06 97.965,260.128C93.563,268.611 89.711,275.68 84.207,284.162C79.803,292.645 74.301,300.421 68.246,308.902C65.494,313.851 61.092,320.212 56.689,326.574C52.285,331.522 46.781,336.471 40.729,341.419C33.574,346.367 27.52,348.487 21.465,346.367L18.162,346.367C13.76,346.367 13.211,344.953 13.211,341.419C13.76,336.471 13.76,331.522 15.412,327.987C15.963,320.212 18.162,313.144 21.465,307.489C25.867,297.593 30.822,286.283 35.773,277.8C46.781,262.956 55.037,246.697 66.045,232.56L64.393,234.681C63.293,235.388 61.092,237.509 60.541,237.509C58.889,238.215 56.689,239.629 55.588,241.043C54.488,243.871 51.736,245.991 50.084,249.525C49.533,250.231 47.883,250.939 47.332,250.231C51.736,243.163 55.588,235.388 61.092,229.733C65.494,224.784 68.797,221.25 72.648,214.889C74.301,212.062 77.051,209.233 78.152,207.112C84.207,202.165 88.059,195.097 93.563,189.441C96.865,186.613 97.965,182.372 100.166,178.131C102.369,176.01 103.469,172.476 102.369,167.528C95.766,173.891 88.059,178.131 82.555,185.2C69.348,195.097 58.34,206.406 47.883,219.13C42.379,226.199 36.326,232.56 30.822,238.922L18.715,255.181C4.404,274.973 -7.703,297.593 -15.959,320.212C-19.262,329.402 -21.463,336.471 -24.215,345.659C-25.314,350.608 -24.215,354.143 -22.014,357.677C-19.811,359.09 -18.711,361.918 -18.162,366.159L-15.959,372.521L-15.959,371.814C-13.758,371.107 -12.658,371.814 -11.006,376.056" style="fill:white;fill-rule:nonzero;"/>
        </g>
        <g transform="matrix(1,0,0,1,689.296,345.886)">
            <path d="M0,303.537C-4.738,315.629 -6.035,324.468 -3.908,330.123C-1.783,335.777 1.926,338.437 7.164,338.146C12.402,337.855 18.174,334.819 24.443,329.014C30.74,323.202 35.715,315.189 39.377,304.908C47.354,280.496 53.514,255.414 57.826,229.666C45.016,242.348 33.266,254.971 22.568,267.502C11.896,280.028 4.365,292.031 0,303.537M112.512,-6.242C120.135,-2.012 125.268,2.353 127.873,6.83C130.506,11.299 132.814,18.377 134.811,28.027C135.65,32.076 136.355,35.484 136.936,38.283C137.514,41.084 137.809,44.325 137.852,48.031C137.889,51.705 137.832,56.604 137.652,62.738C137.475,68.869 137.266,77.228 137.066,87.873C149.287,69.978 159.873,50.613 168.811,29.717C177.777,8.814 184.805,-14.861 189.955,-41.322C190.34,-44.069 192.215,-45.504 195.57,-45.66C198.922,-45.846 202.383,-45.356 205.994,-44.264C209.611,-43.17 212.861,-41.463 215.744,-39.139C218.629,-36.815 219.65,-34.266 218.791,-31.421C213.385,3.029 203.119,35.691 188.027,66.592C172.967,97.485 155.721,125.53 136.32,150.721C134.314,175.991 131.25,201.48 127.168,227.213C123.076,252.915 116.85,279.346 108.477,306.473C105.988,315.433 102.205,324.564 97.109,333.808C92.043,343.049 86.215,351.683 79.666,359.641C73.119,367.6 65.729,374.558 57.547,380.504C49.359,386.422 40.426,390.398 30.705,392.412C17.293,395.187 5.646,393.758 -4.209,388.117C-14.066,382.475 -22.006,374.47 -28.006,364.094C-34.014,353.687 -37.848,342.164 -39.5,329.557C-41.154,316.946 -40.072,304.691 -36.254,292.791C-33.406,283.185 -29.17,273.992 -23.531,265.142C-17.863,256.287 -10.805,247.303 -2.33,238.151C6.162,228.965 15.721,219.179 26.338,208.789C36.988,198.394 48.947,186.777 62.229,173.996C62.984,170.665 63.465,167.105 63.65,163.385C63.83,159.634 64.037,155.877 64.221,152.156C56.494,163.787 47.23,174.433 36.432,184.099C25.654,193.726 12.84,200.094 -1.961,203.158C-21.398,207.182 -37.307,202.666 -49.652,189.605C-61.998,176.543 -70.494,158.875 -75.113,136.562C-77.111,126.914 -78.326,116.435 -78.721,105.152C-79.115,93.871 -78.471,83.008 -76.768,72.625C-74.551,59.976 -70.557,44.991 -64.734,27.66C-58.91,10.328 -50.934,-6.528 -40.801,-22.91C-30.668,-39.293 -18.096,-53.673 -3.053,-66.057C12.02,-78.447 30.012,-86.521 50.945,-90.315C59.848,-91.65 68.15,-90.575 75.838,-87.151C83.553,-83.733 90.453,-78.942 96.564,-72.777C102.672,-66.645 107.58,-59.726 111.344,-52.029C115.102,-44.364 117.461,-37.17 118.357,-30.467C118.93,-25.317 117.361,-21.278 113.619,-18.375C109.871,-15.506 105.664,-13.713 100.979,-12.996C96.291,-12.281 91.834,-12.818 87.617,-14.58C83.395,-16.372 81.027,-19.565 80.553,-24.228C80.238,-25.75 79.791,-27.91 79.211,-30.711C78.631,-33.512 77.586,-36.185 76.092,-38.795C74.594,-41.406 72.707,-43.523 70.432,-45.147C68.15,-46.801 65.465,-47.039 62.322,-45.848C49.117,-42.067 37.486,-32.93 27.459,-18.41C17.434,-3.891 9.322,12.867 3.117,31.865C-3.084,50.861 -7.15,70.242 -9.123,89.951C-11.068,109.652 -10.564,126.627 -7.621,140.843C-5.73,149.974 -2.248,155.188 2.861,156.512C7.971,157.835 13.838,155.953 20.52,150.889L19.826,151.031C29.725,140.506 38.592,128.099 46.484,113.768C54.377,99.437 61.309,82.13 67.244,61.855C68.025,51.631 68.729,43.422 69.379,37.193C70.029,30.963 70.584,26.086 71.041,22.564C71.529,19.035 71.693,16.334 71.547,14.523C71.434,12.705 70.924,10.81 70.037,8.899C68.721,4.918 69.754,1.657 73.082,-0.873C76.41,-3.402 80.471,-5.324 85.279,-6.572C90.088,-7.822 95.189,-8.371 100.537,-8.144C105.881,-7.918 109.893,-7.289 112.512,-6.242" style="fill:white;fill-rule:nonzero;"/>
        </g>
    </g>
</svg>
